<svg t="1596596523328" class="icon" viewBox="0 0 1024 1024" version="1.1" xmlns="http://www.w3.org/2000/svg" p-id="6873" width="200" height="200"><path d="M819.2 375.466667H204.8L512 85.333333z" fill="#EAFFFB" p-id="6874"></path><path d="M819.2 384H204.8c-3.413333 0-6.826667-1.706667-8.533333-5.12s0-6.826667 1.706666-8.533333l307.2-290.133334c3.413333-3.413333 8.533333-3.413333 11.946667 0l307.2 290.133334c1.706667 1.706667 3.413333 6.826667 1.706667 8.533333 0 3.413333-3.413333 5.12-6.826667 5.12z m-592.213333-17.066667h571.733333L512 97.28 226.986667 366.933333z" fill="#44B9A3" p-id="6875"></path><path d="M119.466667 477.866667h785.066666v443.733333H119.466667z" fill="#EAFFFB" p-id="6876"></path><path d="M904.533333 930.133333H119.466667c-5.12 0-8.533333-3.413333-8.533334-8.533333V477.866667c0-5.12 3.413333-8.533333 8.533334-8.533334h785.066666c5.12 0 8.533333 3.413333 8.533334 8.533334v443.733333c0 5.12-3.413333 8.533333-8.533334 8.533333z m-776.533333-17.066666h768v-426.666667h-768v426.666667z" fill="#44B9A3" p-id="6877"></path><path d="M296.96 375.466667h443.733333v546.133333h-443.733333z" fill="#FFFFFF" p-id="6878"></path><path d="M747.52 930.133333h-460.8v-563.2h460.8v563.2z m-443.733333-17.066666h426.666666v-529.066667h-426.666666v529.066667z" fill="#44B9A3" p-id="6879"></path><path d="M730.453333 472.746667s-126.293333-5.12-221.866666 153.6c0 0-97.28 182.613333-204.8 201.386666v83.626667h426.666666V472.746667z" fill="#EAFFFB" p-id="6880"></path><path d="M610.986667 669.013333h-187.733334c-5.12 0-8.533333-3.413333-8.533333-8.533333s3.413333-8.533333 8.533333-8.533333h187.733334c5.12 0 8.533333 3.413333 8.533333 8.533333 0 3.413333-3.413333 8.533333-8.533333 8.533333z" fill="#44B9A3" p-id="6881"></path><path d="M525.653333 566.613333v187.733334c0 5.12-3.413333 8.533333-8.533333 8.533333s-8.533333-3.413333-8.533333-8.533333v-187.733334c0-5.12 3.413333-8.533333 8.533333-8.533333s8.533333 3.413333 8.533333 8.533333z" fill="#44B9A3" p-id="6882"></path></svg>