<svg t="1594718267530" class="icon" viewBox="0 0 1024 1024" version="1.1" xmlns="http://www.w3.org/2000/svg" p-id="3752" width="200" height="200"><path d="M519.45654045 719.5403757H56.52965452c-22.9909997 0-41.63235082-18.64135111-41.63235082-41.63235081v-8.69929719c0-22.9909997 18.64135111-41.63235082 41.63235082-41.63235081h462.92688593c22.9909997 0 41.63235082 18.64135111 41.6323508 41.63235081v8.69929719c0 22.9909997-18.64135111 41.63235082-41.6323508 41.63235081z" fill="#E3EEFF" p-id="3753"></path><path d="M516.34964859 882.96288711h-6.83516207c-45.36062103 0-82.02194489-36.66132385-82.02194489-82.02194489 0-45.36062103 36.66132385-82.02194489 82.02194489-82.02194489h6.83516207v-92.58537718H91.94822163v92.58537718h155.34459259c45.36062103 0 82.02194489 36.66132385 82.02194489 82.02194489 0 45.36062103-36.66132385 82.02194489-82.02194489 82.02194489H91.32684325v92.58537719h425.02280534v-92.58537719z" fill="#E3EEFF" p-id="3754"></path><path d="M541.82616178 487.76624355c0-16.777216-13.04894578-30.44754015-29.82616178-30.44754014H208.14597689c-16.777216 0-31.06891852 13.67032415-31.06891852 31.06891851 0 16.777216 13.67032415 31.06891852 31.06891852 31.06891853H331.80027259c30.44754015 0 54.68129659 24.23375645 54.68129659 54.68129658s-24.23375645 54.68129659-54.68129659 54.6812966H228.65146311v61.51645867H512v-61.51645867h-4.34964859c-30.44754015 0-54.68129659-24.23375645-54.68129659-54.6812966s24.23375645-54.68129659 54.68129659-54.68129658h4.97102696c16.15583763-1.86413511 29.20478341-15.53445925 29.20478341-31.6902969zM712.08383525 882.96288711H60.87930311c-25.47651318 0-45.98199941 20.50548622-45.98199941 45.98199941 0 25.47651318 20.50548622 45.98199941 45.98199941 45.9819994h651.20453214v-91.96399881zM728.86105125 882.96288711h39.14683734v92.58537719h-39.14683734zM815.23264475 882.96288711h24.8551348v92.58537719h-24.8551348zM911.54629215 882.96288711H853.7581037v92.58537719h58.40956682c25.47651318 0 45.98199941-20.50548622 45.9819994-45.98199941 0-26.09789155-20.50548622-46.60337778-46.60337777-46.60337778z" fill="#E3EEFF" p-id="3755"></path><path d="M958.7710483 336.14992118h-42.25372919c-2.48551348 0-4.97102697-2.48551348-4.97102696-4.97102696s2.48551348-4.97102697 4.97102696-4.97102697h42.25372919c2.48551348 0 4.97102697 2.48551348 4.97102695 4.97102697s-1.86413511 4.97102697-4.97102695 4.97102696z" fill="#2B77EF" p-id="3756"></path><path d="M937.6441837 357.27678578c-2.48551348 0-4.97102697-2.48551348-4.97102695-4.97102696v-42.25372919c0-2.48551348 2.48551348-4.97102697 4.97102695-4.97102696s4.97102697 2.48551348 4.97102697 4.97102696v42.25372919c0 2.48551348-1.86413511 4.97102697-4.97102697 4.97102696z" fill="#2B77EF" p-id="3757"></path><path d="M134.20195082 721.40451082c-20.50548622 0-38.52545897-16.15583763-40.38959407-37.28270223-1.24275675-10.5634323 2.48551348-21.12686459 9.32067555-29.82616177 6.83516208-8.07791882 16.777216-13.67032415 27.34064829-14.29170252 10.5634323-0.62137837 21.12686459 2.48551348 29.82616178 9.32067555 8.07791882 6.83516208 13.67032415 16.777216 14.29170252 27.3406483 1.86413511 22.36962133-14.29170252 41.63235082-36.66132386 44.1178643-1.86413511 0.62137837-2.48551348 0.62137837-3.72827021 0.62137837z m0-70.83713423h-2.48551349c-8.07791882 0.62137837-15.53445925 4.34964859-20.50548622 10.5634323s-7.45654045 14.29170252-6.83516208 22.36962133c1.24275675 16.777216 16.15583763 29.20478341 32.93305364 27.96202667 16.777216-1.24275675 29.20478341-16.15583763 27.96202666-32.93305364-0.62137837-8.07791882-4.34964859-15.53445925-10.5634323-20.50548622-6.83516208-4.97102697-13.67032415-7.45654045-20.50548621-7.45654044zM483.41659497 157.19295052c-8.07791882 0-16.15583763-3.10689185-22.36962134-8.07791882-6.83516208-6.2137837-11.18481067-14.29170252-12.42756741-23.61237807-1.86413511-19.26272948 12.42756741-36.03994548 31.69029689-37.28270222 19.26272948-1.86413511 36.03994548 12.42756741 37.28270222 31.69029689 1.86413511 19.26272948-12.42756741 36.03994548-31.69029688 37.28270222h-2.48551348z m0-59.03094519h-1.86413512c-13.67032415 1.24275675-23.61237808 13.04894578-22.36962133 26.71926992 0.62137837 6.83516208 3.72827022 12.42756741 8.69929718 16.777216 4.97102697 4.34964859 11.18481067 6.2137837 18.01997275 5.59240534 13.67032415-1.24275675 23.61237808-13.04894578 22.36962133-26.71926992-0.62137837-6.83516208-3.72827022-12.42756741-8.69929719-16.777216-4.34964859-3.72827022-9.94205392-5.59240533-16.15583762-5.59240534z" fill="#82A0F6" p-id="3758"></path><path d="M255.37073303 218.08803082c-2.48551348 0-4.97102697-2.48551348-4.97102695-4.97102697v-31.06891852l-21.74824297 21.74824297c-1.86413511 1.86413511-4.97102697 1.86413511-6.83516208 0-1.86413511-1.86413511-1.86413511-4.97102697 0-6.83516208l21.74824297-21.74824297h-31.06891852c-2.48551348 0-4.97102697-2.48551348-4.97102696-4.97102695s2.48551348-4.97102697 4.97102696-4.97102697h31.06891852l-21.74824297-21.74824296c-1.86413511-1.86413511-1.86413511-4.97102697 0-6.83516207 1.86413511-1.86413511 4.97102697-1.86413511 6.83516208 0l21.74824297 21.74824295v-31.0689185c0-2.48551348 2.48551348-4.97102697 4.97102695-4.97102697s4.97102697 2.48551348 4.97102697 4.97102697v31.0689185l21.74824297-21.74824295c1.86413511-1.86413511 4.97102697-1.86413511 6.83516206 0 1.86413511 1.86413511 1.86413511 4.97102697 0 6.83516207l-21.74824295 21.74824296h31.06891851c2.48551348 0 4.97102697 2.48551348 4.97102696 4.97102697s-2.48551348 4.97102697-4.97102696 4.97102695h-31.06891851l21.74824295 21.74824297c1.86413511 1.86413511 1.86413511 4.97102697 0 6.83516208-1.86413511 1.86413511-4.97102697 1.86413511-6.83516206 0l-21.74824297-21.74824297v31.06891852c0 3.10689185-2.48551348 4.97102697-4.97102697 4.97102697z" fill="#82A0F6" p-id="3759"></path><path d="M940.12969718 546.17581037c-2.48551348 0-4.97102697-2.48551348-4.97102696-4.97102696v-31.06891852l-21.74824297 21.74824296c-1.86413511 1.86413511-4.97102697 1.86413511-6.83516207 0-1.86413511-1.86413511-1.86413511-4.97102697 0-6.83516207l21.74824297-21.74824296h-31.06891852c-2.48551348 0-4.97102697-2.48551348-4.97102696-4.97102697s2.48551348-4.97102697 4.97102696-4.97102696h31.06891852l-21.74824297-21.74824297c-1.86413511-1.86413511-1.86413511-4.97102697 0-6.83516207 1.86413511-1.86413511 4.97102697-1.86413511 6.83516207 0l21.74824297 21.74824297v-31.06891852c0-2.48551348 2.48551348-4.97102697 4.97102696-4.97102697s4.97102697 2.48551348 4.97102697 4.97102697v31.06891852l21.74824296-21.74824297c1.86413511-1.86413511 4.97102697-1.86413511 6.83516207 0 1.86413511 1.86413511 1.86413511 4.97102697 0 6.83516207l-21.74824296 21.74824297h31.06891853c2.48551348 0 4.97102697 2.48551348 4.97102695 4.97102696s-2.48551348 4.97102697-4.97102695 4.97102697h-31.06891853l21.74824296 21.74824296c1.86413511 1.86413511 1.86413511 4.97102697 0 6.83516207-1.86413511 1.86413511-4.97102697 1.86413511-6.83516207 0l-21.74824296-21.74824296v31.06891852c0 3.10689185-1.86413511 4.97102697-4.97102697 4.97102696z" fill="#82A0F6" p-id="3760"></path><path d="M764.27961837 313.15892148c0 29.20478341-19.88410785 52.81716148-44.73924267 52.81716149 24.85513482 0 44.73924267 23.61237808 44.73924267 52.81716148 0-29.20478341 19.88410785-52.81716148 44.73924266-52.81716148-24.85513482 0-44.73924267-23.61237808-44.73924266-52.81716149zM699.03488948 48.4517357c0 21.74824297-14.91308089 39.14683733-32.93305363 39.14683733 18.01997275 0 32.93305363 17.39859437 32.93305363 39.14683734 0-21.74824297 14.91308089-39.14683733 32.93305363-39.14683734-18.01997275 0.62137837-32.93305363-17.39859437-32.93305363-39.14683733z" fill="#76A6EF" p-id="3761"></path><path d="M186.39773392 840.08777955c-12.42756741 0-22.9909997-9.94205392-22.9909997-22.9909997 0-12.42756741 9.94205392-22.9909997 22.9909997-22.9909997 12.42756741 0 22.9909997 9.94205392 22.99099971 22.9909997s-9.94205392 22.9909997-22.99099971 22.9909997z m0-35.4185671c-6.83516208 0-12.42756741 5.59240533-12.4275674 12.4275674s5.59240533 12.42756741 12.4275674 12.4275674 12.42756741-5.59240533 12.42756741-12.4275674-4.97102697-12.42756741-12.42756741-12.4275674z" fill="#82A0F6" p-id="3762"></path><path d="M119.9102483 314.40167822c-0.62137837 27.96202667 17.39859437 51.57440475 41.63235081 52.19578311-23.61237808-0.62137837-43.49648592 21.74824297-44.73924266 49.71026964 0.62137837-27.96202667-17.39859437-51.57440475-41.63235082-52.19578312 24.23375645 0.62137837 44.1178643-21.12686459 44.73924267-49.71026963z" fill="#76A6EF" p-id="3763"></path><path d="M863.07877925 884.82702222l-234.25964562 2.48551348V507.02897303c0-29.20478341 21.12686459-52.81716148 47.84613452-53.43853985l137.32461985-1.24275673c26.71926992 0 49.08889125 23.61237808 49.08889125 53.43853985v379.04080592z" fill="#C7DDFF" p-id="3764"></path><path d="M813.989888 452.34767645l-30.44754015 0.62137837c25.47651318 1.86413511 45.36062103 24.23375645 45.36062104 52.81716148v379.04080592l-200.08383526 1.86413511v0.62137837l234.25964562-2.48551348V505.16483792c0-29.20478341-21.74824297-53.43853985-49.08889125-52.81716147z" fill="#76A6EF" p-id="3765"></path><path d="M621.36259318 895.39045452V507.02897303c0-33.554432 24.85513482-60.8950803 55.92405334-60.89508028l137.32461985-1.24275675c14.29170252 0 27.96202667 5.59240533 38.52545896 16.15583763 11.80618903 11.80618903 18.64135111 27.96202667 18.64135112 45.36062104v387.11872474l-250.41548327 1.86413511z m193.24867319-434.96485927l-137.32461985 1.24275675c-22.36962133 0-39.7682157 20.50548622-39.7682157 45.36062103v372.20564386l218.103808-2.48551348V505.16483792c0-13.04894578-4.97102697-25.47651318-13.67032415-33.554432-8.07791882-7.45654045-17.39859437-11.18481067-27.3406483-11.18481067z" fill="#2B77EF" p-id="3766"></path><path d="M664.85907911 887.3125357l-397.06077866-3.10689185V259.72038163c0-18.01997275 19.88410785-38.52545897 45.36062103-38.52545896l305.71815822-3.10689185c25.47651318 0 45.98199941 20.50548622 45.98199941 45.36062103v623.86388385z" fill="#C7DDFF" p-id="3767"></path><path d="M325.58648889 884.20564385V259.72038163c0-18.01997275 19.88410785-38.52545897 45.36062103-38.52545896l253.52237511-2.48551349c-1.86413511 0-3.72827022-0.62137837-5.59240533-0.62137836l-305.71815822 2.48551348c-24.85513482 0-45.36062103 20.50548622-45.36062103 38.52545895v624.48526223l397.06077866 3.10689185v-0.62137836l-339.27259022-1.86413512z" fill="#FFFFFF" p-id="3768"></path><path d="M581.59437748 218.08803082l-48.46751289 0.62137836c41.63235082 4.34964859 73.94402608 39.14683733 73.94402608 82.0219449v586.58118162l-339.27259022 3.10689185v0.62137837l397.06077866-3.72827022V300.1099757c0-45.36062103-37.28270222-82.64332325-83.26470163-82.02194488z" fill="#76A6EF" p-id="3769"></path><path d="M274.63346252 899.11872475c-3.72827022 0-7.45654045-1.24275675-10.5634323-4.3496486-3.10689185-3.10689185-4.34964859-6.83516208-4.34964859-10.5634323v-184.549376c0-4.34964859 3.72827022-8.07791882 8.07791882-8.07791882s8.07791882 3.72827022 8.0779188 8.07791882v182.6852409l380.90494105-3.72827023V281.46862459c0-14.91308089-5.59240533-28.58340503-16.15583763-39.14683734-10.5634323-10.5634323-24.85513482-16.15583763-39.7682157-16.15583762l-270.29959112 2.48551348c-30.44754015 0-54.68129659 24.85513482-54.6812966 55.30267497v21.74824295c0 4.34964859-3.72827022 8.07791882-8.0779188 8.07791882s-8.07791882-3.72827022-8.07791882-8.07791882v-21.74824295c0-39.14683733 31.69029689-70.83713422 70.83713422-71.4585126l270.29959112-2.48551348c19.26272948 0 37.28270222 7.45654045 50.95302636 20.50548622 13.67032415 13.67032415 21.12686459 31.69029689 21.12686459 50.95302637v599.00874904c0 8.07791882-6.83516208 14.91308089-14.91308089 14.91308089l-383.39045451 3.72827023z" fill="#2B77EF" p-id="3770"></path><path d="M267.79830045 669.2087277c-4.34964859 0-8.07791882-3.72827022-8.07791882-8.07791881v-26.71926992c0-4.34964859 3.72827022-8.07791882 8.07791882-8.07791882s8.07791882 3.72827022 8.0779188 8.07791882v26.71926992c0 4.34964859-3.72827022 8.07791882-8.0779188 8.07791881zM267.79830045 603.96399882c-4.34964859 0-8.07791882-3.72827022-8.07791882-8.07791882V354.16989392c0-4.34964859 3.72827022-8.07791882 8.07791882-8.07791881s8.07791882 3.72827022 8.0779188 8.07791881v241.71618608c0 4.97102697-3.72827022 8.07791882-8.0779188 8.07791882z" fill="#2B77EF" p-id="3771"></path><path d="M541.20478341 360.38367763H408.85119052c-8.07791882 0-14.91308089-6.83516208-14.91308089-14.91308088 0-8.07791882 6.83516208-14.91308089 14.91308089-14.9130809h132.35359289c8.07791882 0 14.91308089 6.83516208 14.91308089 14.9130809 0 8.07791882-6.83516208 14.91308089-14.91308089 14.91308088z" fill="#F68282" p-id="3772"></path><path d="M474.71729778 426.24978489c-8.07791882 0-14.91308089-6.83516208-14.91308089-14.91308089V278.98311111c0-8.07791882 6.83516208-14.91308089 14.91308089-14.91308089 8.07791882 0 14.91308089 6.83516208 14.91308089 14.91308089v132.35359289c0.62137837 8.69929718-6.2137837 14.91308089-14.91308089 14.91308089z" fill="#F68282" p-id="3773"></path><path d="M562.95302637 584.07989097H386.48156918c-4.34964859 0-8.07791882-3.72827022-8.07791881-8.07791882s3.72827022-8.07791882 8.07791881-8.07791882h176.47145719c4.34964859 0 8.07791882 3.72827022 8.07791881 8.07791882s-3.72827022 8.07791882-8.07791881 8.07791882zM562.95302637 651.18875497H386.48156918c-4.34964859 0-8.07791882-3.72827022-8.07791881-8.07791882s3.72827022-8.07791882 8.07791881-8.07791882h176.47145719c4.34964859 0 8.07791882 3.72827022 8.07791881 8.07791882s-3.72827022 8.07791882-8.07791881 8.07791882zM561.08889125 895.39045452H378.40365037v-163.42251141h182.06386252v163.42251141z m-166.52940325-16.15583763h149.75218725V748.12378075H394.559488v131.11083614zM807.7761043 895.39045452h-90.09986371v-163.42251141h90.09986371v163.42251141z m-73.94402608-16.15583763h57.78818845V748.12378075h-57.78818845v131.11083614zM799.69818548 584.07989097h-73.94402607c-4.34964859 0-8.07791882-3.72827022-8.07791882-8.07791882s3.72827022-8.07791882 8.07791882-8.07791882h73.94402607c4.34964859 0 8.07791882 3.72827022 8.07791882 8.07791882s-3.72827022 8.07791882-8.07791882 8.07791882zM799.69818548 651.18875497h-73.94402607c-4.34964859 0-8.07791882-3.72827022-8.07791882-8.07791882s3.72827022-8.07791882 8.07791882-8.07791882h73.94402607c4.34964859 0 8.07791882 3.72827022 8.07791882 8.07791882s-3.72827022 8.07791882-8.07791882 8.07791882z" fill="#2B77EF" p-id="3774"></path><path d="M993.56823703 695.92799763c-17.39859437-34.79718875-62.13783703-50.331648-98.17778251-41.01097245-11.18481067 2.48551348-68.97299911 24.85513482-68.97299911 40.38959407 0-15.53445925-57.78818845-37.90408059-68.97299911-40.38959407-36.03994548-8.69929718-80.77918815 6.83516208-98.17778252 41.01097245-10.5634323 20.50548622-8.69929718 45.36062103-1.86413511 67.73024237 13.04894578 38.52545897 40.38959408 72.07989097 66.48748563 102.52743111 17.39859437 19.88410785 35.41856711 39.14683733 54.05991822 57.16681007 6.2137837 6.2137837 47.84613452 36.03994548 47.84613451 43.49648593 0-7.45654045 41.63235082-37.28270222 47.84613452-43.49648593 18.64135111-18.01997275 37.28270222-37.28270222 54.05991823-57.16681007 26.09789155-30.44754015 53.43853985-64.00197215 66.48748563-102.52743111 8.69929718-22.36962133 9.94205392-47.22475615-0.62137838-67.73024237z" fill="#F68282" p-id="3775"></path><path d="M993.56823703 694.68524089c-16.777216-33.554432-59.03094518-49.08889125-94.44951228-41.63235081 24.85513482 4.97102697 47.84613452 19.26272948 59.65232355 41.63235081 10.5634323 20.50548622 8.69929718 45.36062103 1.86413511 67.73024236-13.04894578 38.52545897-40.38959408 72.07989097-66.48748563 102.52743112-17.39859437 19.88410785-35.41856711 39.14683733-54.05991823 57.16681008-3.72827022 3.72827022-18.01997275 14.29170252-30.44754014 24.23375644 9.32067555 8.07791882 17.39859437 15.53445925 17.39859437 19.26272948 0-7.45654045 41.63235082-37.28270222 47.84613452-43.49648592 18.64135111-18.01997275 37.28270222-37.28270222 54.05991822-57.16681008 26.09789155-30.44754015 53.43853985-64.00197215 66.48748563-102.52743112 7.45654045-21.74824297 8.69929718-47.22475615-1.86413512-67.73024236z" fill="#DE7575" p-id="3776"></path><path d="M833.87399585 967.47034548s0.62137837-0.62137837 0.62137837-1.86413511h-16.15583763c0 1.24275675 0.62137837 1.86413511 0.62137838 1.86413511-2.48551348-4.97102697-24.23375645-21.74824297-32.93305364-29.2047834-6.83516208-4.97102697-10.5634323-8.07791882-12.42756741-10.5634323-20.50548622-19.88410785-38.52545897-39.14683733-54.68129659-57.78818845-21.12686459-24.23375645-41.01097245-48.46751289-55.30267496-75.80816118-1.86413511-3.72827022-0.62137837-8.69929718 3.10689185-11.18481067 3.72827022-1.86413511 8.69929718-0.62137837 11.18481067 3.10689185 13.67032415 26.09789155 32.93305363 49.08889125 53.43853986 73.3226477 15.53445925 18.64135111 33.554432 37.28270222 54.05991822 56.54543172 1.24275675 1.24275675 6.2137837 4.97102697 11.18481066 9.32067555 15.53445925 11.80618903 24.85513482 19.88410785 31.06891852 26.09789155 5.59240533-6.2137837 15.53445925-14.29170252 31.06891852-26.09789155 4.97102697-3.72827022 9.94205392-7.45654045 11.18481066-9.32067555 20.50548622-19.88410785 37.90408059-38.52545897 54.05991822-56.54543172 27.3406483-32.31167525 52.81716148-64.00197215 65.2447289-100.04191762 4.34964859-13.04894578 9.94205392-38.52545897-1.24275675-61.51645866-16.15583763-32.93305363-58.40956682-44.73924267-88.85710695-36.66132386-16.777216 4.34964859-60.8950803 24.23375645-62.75921542 32.93305363h-16.15583763c-1.86413511-8.69929718-45.98199941-28.58340503-62.7592154-32.93305363-31.06891852-7.45654045-72.70126933 4.34964859-88.85710697 36.66132386-11.18481067 22.9909997-5.59240533 48.46751289-1.24275674 61.51645866 1.24275675 4.34964859-0.62137837 8.69929718-4.97102696 9.94205392-4.34964859 1.24275675-8.69929718-0.62137837-9.94205393-4.97102696-8.69929718-26.71926992-8.07791882-52.81716148 1.86413512-73.94402607 19.88410785-39.7682157 70.21575585-54.68129659 107.49845807-45.36062105 0.62137837 0 47.84613452 14.91308089 67.108864 33.554432 19.26272948-18.64135111 66.48748563-32.93305363 67.108864-33.554432 37.28270222-9.32067555 87.61435022 5.59240533 107.49845808 45.36062105 10.5634323 20.50548622 11.18481067 47.22475615 1.86413511 73.94402607-13.04894578 38.52545897-39.7682157 72.07989097-68.35162075 105.0129446-16.15583763 18.64135111-34.17581037 37.90408059-54.68129658 57.78818844-1.86413511 1.86413511-6.2137837 4.97102697-12.42756742 10.56343229-11.80618903 7.45654045-33.554432 24.85513482-36.03994548 29.82616178z" fill="#2B77EF" p-id="3777"></path></svg>