<svg t="1594791631636" class="icon" viewBox="0 0 1024 1024" version="1.1" xmlns="http://www.w3.org/2000/svg" p-id="9495" width="200" height="200"><path d="M780.97 596.31a287 287 0 0 1-56.433 101.717c-31.858-20.935-67.698-37.206-106.155-48.242 6.372-36.409 10.354-76.231 11.264-118.329H834.56c0.455-6.827 0.683-13.653 0.683-20.48 0-6.94-0.342-13.88-0.683-20.708h-41.415v0.228H629.646c-0.91-42.212-4.892-82.034-11.264-118.329 38.457-11.036 74.297-27.307 106.155-48.242 25.259 29.355 44.6 63.716 56.32 101.49h43.122C786.319 285.468 658.659 182.5 506.88 182.5c-151.78 0-279.438 102.968-317.099 242.915h43.122c11.72-37.774 31.061-72.135 56.206-101.49 31.858 20.935 67.698 37.092 106.269 48.128-6.372 36.41-10.354 76.231-11.264 118.443H220.388v-0.228h-41.416c-0.455 6.827-0.682 13.768-0.682 20.708s0.227 13.767 0.682 20.48H384c0.91 42.212 4.892 82.034 11.264 118.443-38.57 11.036-74.41 27.193-106.268 48.128-25.26-29.355-44.601-63.83-56.32-101.718h-43.122C227.1 736.256 354.873 839.452 506.766 839.452S786.318 736.37 823.98 596.31H780.97z m-86.015-302.194c-25.828 15.928-54.5 28.672-84.992 37.66-10.013-40.846-23.325-75.207-38.912-100.693 46.649 10.581 88.974 32.654 123.904 63.033zM425.074 490.382c0.91-40.846 4.665-77.255 10.24-108.999 23.21 4.096 46.99 6.372 71.566 6.372 24.462 0 48.356-2.162 71.566-6.258 5.462 31.744 9.216 68.153 10.24 108.999H425.074z m163.385 41.074c-0.91 40.732-4.665 77.255-10.24 109-23.097-4.097-46.99-6.259-71.453-6.259s-48.355 2.276-71.566 6.372c-5.461-31.744-9.216-68.153-10.24-109h163.499z m-81.693-307.883c15.133 0 44.032 40.505 63.26 117.647-20.48 3.527-41.528 5.46-63.26 5.46-21.618 0-42.78-1.933-63.146-5.46 19.228-77.142 48.128-117.647 63.146-117.647z m-188.074 70.543c34.93-30.38 77.255-52.338 123.79-63.033-15.588 25.486-28.9 59.847-38.912 100.693-30.379-8.988-58.937-21.732-84.878-37.66z m0 433.72c25.827-15.928 54.385-28.672 84.878-37.66 10.012 40.732 23.324 75.207 38.912 100.693-46.535-10.695-88.747-32.654-123.79-63.033z m188.074 70.543c-15.132 0-44.032-40.505-63.146-117.647 20.48-3.527 41.528-5.46 63.146-5.46s42.78 1.933 63.26 5.46c-19.228 77.142-48.127 117.647-63.26 117.647z m64.285-7.51c15.587-25.486 29.013-59.847 38.912-100.693 30.606 8.988 59.05 21.618 84.992 37.547-34.93 30.378-77.255 52.451-123.904 63.146z" fill="#1195FE" p-id="9496"></path><path d="M160.654 510.976a41.984 41.984 0 1 0 83.968 0 41.984 41.984 0 1 0-83.968 0z" fill="#FFFFFF" p-id="9497"></path><path d="M202.638 569.116c-32.085 0-58.14-26.055-58.14-58.14s26.055-58.14 58.14-58.14 58.14 26.055 58.14 58.14-26.054 58.14-58.14 58.14z m0-83.854c-14.222 0-25.714 11.492-25.714 25.714 0 14.222 11.492 25.714 25.714 25.714s25.714-11.492 25.714-25.714c0-14.222-11.492-25.714-25.714-25.714z" fill="#1195FE" p-id="9498"></path><path d="M776.533 510.976a41.984 41.984 0 1 0 83.968 0 41.984 41.984 0 1 0-83.968 0z" fill="#FFFFFF" p-id="9499"></path><path d="M818.517 569.116c-32.085 0-58.14-26.055-58.14-58.14s26.055-58.14 58.14-58.14c32.086 0 58.14 26.055 58.14 58.14s-26.168 58.14-58.14 58.14z m0-83.854c-14.222 0-25.713 11.492-25.713 25.714 0 14.222 11.491 25.714 25.713 25.714 14.223 0 25.714-11.492 25.714-25.714 0-14.222-11.605-25.714-25.714-25.714z" fill="#1195FE" p-id="9500"></path><path d="M491.292 83.058c6.372-0.228 12.857-0.455 19.229-0.455 236.43 0 428.715 192.284 428.715 428.714 0 132.779-60.644 251.563-155.648 330.297l12.174 31.63c106.95-84.536 175.9-215.267 175.9-361.927 0-254.293-206.848-461.141-461.141-461.141-10.581 0-21.049 0.455-31.517 1.252l12.288 31.63z m12.288 856.86c-233.244-3.754-421.774-194.446-421.774-428.6 0-123.336 52.452-234.61 135.965-312.89l-12.516-32.426c-95.573 84.537-155.99 207.986-155.99 345.315 0 254.294 206.849 461.142 461.142 461.142 1.82 0 3.755-0.114 5.575-0.114l-12.402-32.427z" fill="#AED7FF" p-id="9501"></path><path d="M468.537 956.644a41.984 41.984 0 1 0 83.968 0 41.984 41.984 0 1 0-83.968 0z" fill="#FFFFFF" p-id="9502"></path><path d="M510.52 1014.898c-32.084 0-58.14-26.055-58.14-58.14 0-32.086 26.056-58.141 58.14-58.141 32.086 0 58.141 26.055 58.141 58.14 0 31.972-26.055 58.14-58.14 58.14z m0-83.968c-14.221 0-25.713 11.491-25.713 25.714 0 14.222 11.492 25.713 25.714 25.713s25.714-11.491 25.714-25.713c0-14.109-11.492-25.714-25.714-25.714z" fill="#1195FE" p-id="9503"></path><path d="M468.537 65.195a41.984 41.984 0 1 0 83.968 0 41.984 41.984 0 1 0-83.968 0z" fill="#FFFFFF" p-id="9504"></path><path d="M510.52 123.335c-32.084 0-58.14-26.055-58.14-58.14s26.056-58.14 58.14-58.14c32.086 0 58.141 26.054 58.141 58.14s-26.055 58.14-58.14 58.14z m0-83.854c-14.221 0-25.713 11.491-25.713 25.714s11.492 25.713 25.714 25.713 25.714-11.491 25.714-25.713S524.743 39.48 510.52 39.48z" fill="#1195FE" p-id="9505"></path></svg>