<svg t="1594789818515" class="icon" viewBox="0 0 1024 1024" version="1.1" xmlns="http://www.w3.org/2000/svg" p-id="6426" width="200" height="200"><path d="M474.6 589v-15.4c0-8.2-6.7-14.9-14.9-14.9s-14.9 6.7-14.9 14.9V589h29.8zM444.9 591.4h29.7v3.4h-29.7z" fill="#ffffff" p-id="6427"></path><path d="M887.8 595.6h-4.2c-4.6 0-8.4-3.8-8.4-8.4V537c0-4.6-3.7-9.3-8.1-10.4l-44.7-11.1c-4.5-1.1-9.4-5.5-11.1-9.8l-33.5-88.6c-1.6-4.3-6.7-7.8-11.3-7.8H645c-4.6 0-8.4-3.8-8.4-8.4V296.3c0-4.6-3.8-8.4-8.4-8.4H159.4c-4.6 0-8.4 3.8-8.4 8.4v290.9c0 4.6-3.8 8.4-8.4 8.4h-6.3c-4.6 0-8.4 3.8-8.4 8.4v50.2c0 4.6 3.8 8.4 8.4 8.4h68.1c0 40.4 32.8 73.2 73.2 73.2 40.4 0 73.2-32.8 73.2-73.2h294.6c0 40.4 32.8 73.2 73.2 73.2 40.4 0 73.2-32.8 73.2-73.2h96c4.6 0 8.4-3.8 8.4-8.4V604c0-4.7-3.8-8.4-8.4-8.4zM277.7 697c-19 0-34.5-15.4-34.5-34.5 0-19 15.4-34.5 34.5-34.5s34.5 15.4 34.5 34.5-15.4 34.5-34.5 34.5z m202.9-232.9c0 7.9-6.4 14.4-14.4 14.4h-32.4v32.4c0 8-6.5 14.4-14.4 14.4H381c-8 0-14.4-6.4-14.4-14.4v-32.4h-32.4c-8 0-14.4-6.5-14.4-14.4v-38.4c0-8 6.4-14.4 14.4-14.4h32.4v-32.4c0-8 6.5-14.4 14.4-14.4h38.4c7.9 0 14.4 6.5 14.4 14.4v32.4h32.4c8 0 14.4 6.4 14.4 14.4v38.4zM718.7 697c-19 0-34.5-15.4-34.5-34.5 0-19 15.4-34.5 34.5-34.5s34.5 15.4 34.5 34.5-15.5 34.5-34.5 34.5z m-53.4-191.4v-60.7h86.9l19.8 60.7H665.3z" fill="#ffffff" p-id="6428"></path></svg>