<svg t="1594789903766" class="icon" viewBox="0 0 1024 1024" version="1.1" xmlns="http://www.w3.org/2000/svg" p-id="6744" width="200" height="200"><path d="M0 0h1024v1024H0z" fill-opacity="0" p-id="6745" fill="#ffffff"></path><path d="M840.467692 265.058462h31.901539a36.627692 36.627692 0 0 1 36.627692 36.627692v87.04a36.627692 36.627692 0 0 1-36.627692 36.233846h-31.901539v374.941538a73.255385 73.255385 0 0 1-73.255384 73.255385H191.409231A73.255385 73.255385 0 0 1 118.153846 799.901538V224.098462a73.255385 73.255385 0 0 1 73.255385-73.255385h575.803077a73.255385 73.255385 0 0 1 73.255384 73.255385z m-74.830769-75.618462H192.984615a36.627692 36.627692 0 0 0-35.446153 36.627692v570.683077a36.627692 36.627692 0 0 0 36.627692 36.233846h571.470769a36.233846 36.233846 0 0 0 36.627692-36.233846V226.067692a36.233846 36.233846 0 0 0-36.627692-36.627692z m106.732308 98.461538h-31.901539v114.215385h31.901539a13.784615 13.784615 0 0 0 13.784615-13.390769V301.686154a13.784615 13.784615 0 0 0-13.784615-13.784616z m-22.843077 196.923077a36.627692 36.627692 0 0 1 36.627692 36.627693v201.255384a36.627692 36.627692 0 0 1-36.627692 36.627693h-31.901539v-275.692308z m0 22.843077h-9.058462v228.824616h9.058462a13.784615 13.784615 0 0 0 13.784615-13.784616v-201.64923a13.784615 13.784615 0 0 0-13.784615-13.784616zM646.695385 0a73.649231 73.649231 0 0 1 68.135384 46.473846l50.018462 127.212308H193.772308l50.018461-127.212308A73.649231 73.649231 0 0 1 311.926154 0z m-7.876923 32.295385h-319.015385A47.655385 47.655385 0 0 0 275.692308 63.409231L239.064615 157.538462h480.492308l-36.233846-94.523077a47.655385 47.655385 0 0 0-44.504615-30.72z m126.030769 818.018461l-50.018462 127.212308A73.649231 73.649231 0 0 1 646.695385 1024h-334.769231a73.649231 73.649231 0 0 1-68.135385-46.473846l-50.018461-127.212308z m-45.292308 15.753846H239.064615l36.627693 94.523077a47.655385 47.655385 0 0 0 44.504615 31.113846h319.015385a47.655385 47.655385 0 0 0 44.504615-31.113846z m-240.246154-183.532307a194.953846 194.953846 0 1 1 196.923077-194.953847 194.56 194.56 0 0 1-196.923077 194.953847z m0-64.984616a129.969231 129.969231 0 1 0-129.969231-129.969231 129.969231 129.969231 0 0 0 129.969231 129.969231z" fill="#ffffff" p-id="6746"></path></svg>