<svg t="1594791738662" class="icon" viewBox="0 0 1024 1024" version="1.1" xmlns="http://www.w3.org/2000/svg" p-id="11422" width="200" height="200"><path d="M737.5 236.4c0 22.5 17.7 40.8 39.3 40.8 22.1-0.5 39.6-18.7 39.2-40.8 0.4-22.1-17.1-40.4-39.2-40.9-22.2 0.5-39.8 18.8-39.3 40.9z m0.2 347.9c0 22.1 17.5 40 39.1 40 21.5 0 39.1-18 39.1-40 0.1-10.5-3.9-20.6-11.2-28.2-7.3-7.5-17.4-11.8-27.9-12-21.6 0-39.1 18-39.1 40.2zM479.1 690.2h59.4v169.4h-59.4V690.2z m0 0" fill="#A5A5A5" p-id="11423"></path><path d="M832.1 706.7H189.2c-70 0-126.7-56.7-126.7-126.7s56.7-126.7 126.7-126.7h642.9c70 0 126.7 56.7 126.7 126.7s-56.7 126.7-126.7 126.7z m5.9-194H187.3c-24.1 0-46.3 12.8-58.3 33.7-12 20.8-12 46.5 0 67.3 12 20.8 34.3 33.7 58.3 33.7l650.8-0.1c24.1 0 46.3-12.8 58.3-33.7 12-20.8 12-46.5 0-67.3-12-20.8-34.2-33.7-58.4-33.6zM213.3 855.3h593.3c16.4 0 29.7 13.3 29.7 29.7s-13.3 29.7-29.7 29.7H213.4c-16.4 0-29.7-13.3-29.7-29.7s13.3-29.7 29.6-29.7z m620.6-494.1H187.3c-69 0-124.9-55.9-124.9-124.9s55.9-124.9 124.9-124.9h646.6c69 0 124.9 55.9 124.9 124.9s-55.9 124.9-124.9 124.9z m5.8-190.6H185.5c-35.5 1.1-63.6 30.2-63.6 65.6 0 35.5 28.2 64.5 63.6 65.6h654.2c23.9 0.7 46.4-11.6 58.6-32.2 12.2-20.6 12.2-46.2 0-66.9-12.2-20.5-34.7-32.8-58.6-32.1z m0 0" fill="#648B99" p-id="11424"></path></svg>