<svg t="1594791830980" class="icon" viewBox="0 0 1024 1024" version="1.1" xmlns="http://www.w3.org/2000/svg" p-id="16115" width="200" height="200"><path d="M539.136 678.912H141.824c-19.968 0-35.84-15.872-35.84-35.84v-7.68c0-19.968 15.872-35.84 35.84-35.84h397.312c19.968 0 35.84 15.872 35.84 35.84v7.68c0 19.456-15.872 35.84-35.84 35.84z" fill="#E3EEFF" p-id="16116"></path><path d="M536.576 819.2h-5.632c-38.912 0-70.144-31.232-70.144-70.144s31.232-70.144 70.144-70.144h5.632v-79.36H172.032v79.36H305.152c38.912 0 70.144 31.232 70.144 70.144S344.064 819.2 305.152 819.2h-133.12v79.36h365.056V819.2z" fill="#E3EEFF" p-id="16117"></path><path d="M558.592 479.232c0-14.336-11.264-26.112-25.6-26.624h-261.12c-14.848 0-26.624 11.776-26.624 26.624s11.776 26.624 26.624 26.624h106.496c26.112 0 47.104 20.992 47.104 47.104s-20.992 47.104-47.104 47.104H289.28v52.736h243.712v-52.736h-4.096c-26.112 0-47.104-20.992-47.104-47.104s20.992-47.104 47.104-47.104h4.096c14.336-0.512 25.6-12.288 25.6-26.624zM705.024 819.2H145.408c-22.016 0-39.424 17.92-39.424 39.424 0 22.016 17.92 39.424 39.424 39.424h559.104V819.2zM719.36 819.2h33.792v79.36h-33.792zM793.6 819.2h21.504v79.36H793.6zM876.544 819.2h-50.176v79.36h50.176c22.016 0 39.424-17.92 39.424-39.424 0-22.016-17.92-39.936-39.424-39.936z" fill="#E3EEFF" p-id="16118"></path><path d="M884.224 763.392h-36.352c-2.56 0-4.096-2.048-4.096-4.096 0-2.56 2.048-4.096 4.096-4.096h36.352c2.56 0 4.096 2.048 4.096 4.096 0 2.56-2.048 4.096-4.096 4.096z" fill="#2B77EF" p-id="16119"></path><path d="M865.792 781.824c-2.56 0-4.096-2.048-4.096-4.096v-36.352c0-2.56 2.048-4.096 4.096-4.096 2.56 0 4.096 2.048 4.096 4.096v36.352c0.512 2.048-1.536 4.096-4.096 4.096z" fill="#2B77EF" p-id="16120"></path><path d="M508.416 185.344c-7.168 0-13.824-2.56-18.944-7.168-6.144-5.12-9.728-12.288-10.752-20.48-1.536-16.384 10.752-30.72 27.136-32.256 16.384-1.536 30.72 10.752 32.256 27.136 0.512 7.68-1.536 15.872-6.656 22.016-5.12 6.144-12.288 9.728-20.48 10.752h-2.56z m0-51.2h-2.048c-11.776 1.024-20.48 11.264-19.456 23.04 0.512 5.632 3.072 10.752 7.68 14.336 4.096 3.584 9.728 5.632 15.36 5.12 5.632-0.512 10.752-3.072 14.336-7.68 3.584-4.096 5.12-9.728 5.12-15.36-1.024-11.264-10.24-19.456-20.992-19.456z" fill="#82A0F6" p-id="16121"></path><path d="M340.48 257.536c-2.56 0-4.096-2.048-4.096-4.096v-26.624L317.44 245.76c-1.536 1.536-4.608 1.536-6.144 0-1.536-1.536-1.536-4.608 0-6.144l18.944-18.944h-26.624c-2.56 0-4.096-2.048-4.096-4.096 0-2.56 2.048-4.096 4.096-4.096h26.624l-18.944-18.944c-1.536-1.536-1.536-4.608 0-6.144 1.536-1.536 4.608-1.536 6.144 0l18.944 18.944v-26.624c0-2.56 2.048-4.096 4.096-4.096s4.096 2.048 4.096 4.096v26.624l18.944-18.944c1.536-1.536 4.608-1.536 6.144 0 1.536 1.536 1.536 4.608 0 6.144l-18.944 18.944h26.624c2.56 0 4.096 2.048 4.096 4.096 0 2.56-2.048 4.096-4.096 4.096h-26.624l18.944 18.944c1.536 1.536 1.536 4.608 0 6.144-1.536 1.536-4.608 1.536-6.144 0l-18.944-18.944v26.624c0 2.048-2.048 4.096-4.096 4.096z" fill="#82A0F6" p-id="16122"></path><path d="M880.64 640c-2.56 0-4.096-2.048-4.096-4.096V609.28l-18.944 18.944c-1.536 1.536-4.608 1.536-6.144 0-1.536-1.536-1.536-4.608 0-6.144l18.944-18.944h-26.624c-2.56 0-4.096-2.048-4.096-4.096s2.048-4.096 4.096-4.096h26.624l-18.944-18.944c-1.536-1.536-1.536-4.608 0-6.144 1.536-1.536 4.608-1.536 6.144 0l18.944 18.944v-26.624c0-2.56 2.048-4.096 4.096-4.096 2.56 0 4.096 2.048 4.096 4.096v26.624l18.944-18.944c1.536-1.536 4.608-1.536 6.144 0 1.536 1.536 1.536 4.608 0 6.144l-18.944 18.944h26.624c2.56 0 4.096 2.048 4.096 4.096s-2.048 4.096-4.096 4.096H890.88l18.944 18.944c1.536 1.536 1.536 4.608 0 6.144-1.536 1.536-4.608 1.536-6.144 0l-18.944-18.944v26.624c0.512 2.048-1.536 4.096-4.096 4.096z" fill="#82A0F6" p-id="16123"></path><path d="M812.544 354.304c0 25.088-17.408 45.568-38.4 45.568 20.992 0 38.4 20.48 38.4 45.568 0-25.088 17.408-45.568 38.4-45.568-21.504 0-38.4-20.48-38.4-45.568zM793.088 192.512c0 18.432-12.8 33.792-28.672 33.792 15.872 0 28.672 15.36 28.672 33.792 0-18.432 12.8-33.792 28.672-33.792-15.872 0-28.672-14.848-28.672-33.792z" fill="#76A6EF" p-id="16124"></path><path d="M129.024 771.072c-14.336 0-26.624-11.776-26.624-26.624 0-14.336 11.776-26.624 26.624-26.624 14.336 0 26.112 11.776 26.112 26.624 0 14.848-11.776 26.624-26.112 26.624z m0-45.568c-10.24 0-18.944 8.704-18.944 18.944s8.704 18.944 18.944 18.944 18.944-8.704 18.944-18.944-8.704-18.944-18.944-18.944z" fill="#82A0F6" p-id="16125"></path><path d="M149.504 275.456c1.024 23.552 17.92 42.496 37.888 41.472-19.968 0.512-35.328 20.48-34.816 44.544-1.024-23.552-17.92-42.496-37.888-41.472 19.968-1.024 35.84-20.992 34.816-44.544z" fill="#76A6EF" p-id="16126"></path><path d="M220.672 751.104h584.192l-69.12-115.2-452.096-10.752z" fill="#1B69DB" p-id="16127"></path><path d="M791.552 573.952c-8.704-11.776-13.824-23.552-13.824-23.552-9.728-71.168-48.64-121.344-68.608-142.336-3.072-4.608-6.656-8.192-11.264-11.264-6.144-4.096-13.824-6.656-21.504-6.656H206.336c-22.016 0-39.936 17.92-39.936 40.448V701.44c0 22.016 17.92 40.448 39.936 40.448H225.28c12.288-47.104 54.784-81.92 105.984-81.92s93.696 34.816 105.984 81.92h136.704c12.288-47.104 54.784-81.92 105.984-81.92s93.696 34.816 105.984 81.92h24.576v-126.464c0-24.576-10.24-29.696-18.944-41.472z" fill="#C7DDFF" p-id="16128"></path><path d="M220.672 701.952v-271.36c0-22.016 17.92-40.448 39.936-40.448H206.336c-22.016 0-39.936 17.92-39.936 40.448V701.44c0 22.016 17.92 40.448 39.936 40.448H225.28c1.024-4.608 3.072-9.216 4.608-13.824-5.632-7.168-9.216-16.384-9.216-26.112z" fill="#76A6EF" p-id="16129"></path><path d="M810.496 751.616h-24.576c-4.096 0-8.192-3.072-9.216-7.168-11.264-44.032-51.2-75.264-96.768-75.264-45.568 0-85.504 30.72-96.768 75.264-1.024 4.096-4.608 7.168-9.216 7.168H437.248c-4.096 0-8.192-3.072-9.216-7.168-11.264-44.032-51.2-75.264-96.768-75.264-45.568 0-85.504 30.72-96.768 75.264-1.024 4.096-4.608 7.168-9.216 7.168h-18.944c-27.136 0-49.152-22.528-49.152-49.664v-271.36c0-27.136 22.016-49.664 49.152-49.664h470.016c9.216 0 18.432 2.56 26.112 7.68l0.512 0.512c5.12 3.584 9.728 7.68 13.312 13.312 22.016 24.064 60.416 74.24 70.144 145.92 1.536 3.072 5.632 11.776 11.776 20.48 1.536 2.048 3.584 4.096 5.12 6.144 7.68 8.704 15.872 17.92 15.872 40.96V742.4c1.024 5.12-3.584 9.216-8.704 9.216z m-17.408-18.944h7.68v-117.248c0-15.872-4.608-20.992-11.264-28.672-2.048-2.048-4.096-4.608-6.144-7.168-9.216-12.288-14.848-25.088-14.848-25.6-0.512-0.512-0.512-1.536-0.512-2.56-9.216-70.144-49.152-119.296-66.048-137.216l-1.024-1.024c-2.048-3.072-5.12-6.144-8.192-8.192 0 0-0.512 0-0.512-0.512-5.12-3.072-10.752-5.12-16.384-5.12H206.336c-16.896 0-30.208 13.824-30.208 30.72v270.848c0 16.896 13.824 30.72 30.208 30.72h11.776c15.872-48.64 61.44-81.92 113.152-81.92 51.712 0 97.28 33.28 113.152 81.92h122.88c15.872-48.64 61.44-81.92 113.152-81.92 51.712 0.512 96.768 34.304 112.64 82.944z" fill="#2B77EF" p-id="16130"></path><path d="M351.232 613.888c-51.712 0-93.696-41.984-93.696-93.696 0-51.712 41.984-93.696 93.696-93.696 51.712 0 93.696 41.984 93.696 93.696 0 51.712-41.984 93.696-93.696 93.696zM523.776 416.768h91.136v145.408h-91.136zM700.416 562.176h-58.88V416.256h18.944c17.92 10.752 32.256 36.864 39.936 70.656v75.264z" fill="#FFFFFF" p-id="16131"></path><path d="M331.776 692.736c-42.496 0-77.312 34.816-77.312 77.312s34.304 77.312 77.312 77.312c42.496 0 77.312-34.304 77.312-77.312-0.512-42.496-34.816-77.312-77.312-77.312z" fill="#2B77EF" p-id="16132"></path><path d="M331.776 808.448c-21.504 0-38.4-17.408-38.4-38.4 0-21.504 17.408-38.4 38.4-38.4s38.4 17.408 38.4 38.4-17.408 38.4-38.4 38.4z" fill="#C7DDFF" p-id="16133"></path><path d="M679.936 691.712c-42.496 0-77.312 34.816-77.312 77.312s34.304 77.312 77.312 77.312c42.496 0 77.312-34.304 77.312-77.312 0-42.496-34.816-77.312-77.312-77.312z" fill="#2B77EF" p-id="16134"></path><path d="M679.936 807.424c-21.504 0-38.4-17.408-38.4-38.4 0-21.504 17.408-38.4 38.4-38.4s38.4 17.408 38.4 38.4-16.896 38.4-38.4 38.4zM567.296 244.736c-32.256 0-58.368 22.016-58.368 49.664v65.024h117.248V294.4c0-27.648-26.112-49.664-58.88-49.664z" fill="#C7DDFF" p-id="16135"></path><path d="M602.624 347.136h-27.648V268.288s27.648 7.168 27.648 31.232v47.616z" fill="#C7DDFF" p-id="16136"></path><path d="M626.176 368.64H508.928c-5.12 0-9.216-4.096-9.216-9.216V294.4c0-32.768 30.72-58.88 68.096-58.88 37.376 0 68.096 26.624 68.096 58.88v65.024c-0.512 5.12-4.608 9.216-9.728 9.216z m-107.52-18.944h98.304V294.4c0-22.016-22.016-40.448-49.152-40.448s-49.152 17.92-49.152 40.448v55.296z" fill="#2B77EF" p-id="16137"></path><path d="M602.624 347.136h-27.648V268.288s27.648 7.168 27.648 31.232v47.616zM410.112 508.928h-38.912c-4.096 0-7.168-3.072-7.168-7.168v-38.912c0-4.096-3.072-7.168-7.168-7.168h-12.8c-4.096 0-7.168 3.072-7.168 7.168V501.76c0 4.096-3.072 7.168-7.168 7.168H291.84c-4.096 0-7.168 3.072-7.168 7.168v12.8c0 4.096 3.072 7.168 7.168 7.168h38.912c4.096 0 7.168 3.072 7.168 7.168v38.912c0 4.096 3.072 7.168 7.168 7.168h12.8c4.096 0 7.168-3.072 7.168-7.168V542.72c0-4.096 3.072-7.168 7.168-7.168h38.912c4.096 0 7.168-3.072 7.168-7.168v-12.8c-1.024-3.584-4.096-6.656-8.192-6.656z m7.168 0" fill="#F68282" p-id="16138"></path></svg>