<svg t="1594791942389" class="icon" viewBox="0 0 1024 1024" version="1.1" xmlns="http://www.w3.org/2000/svg" p-id="17168" width="200" height="200"><path d="M680.8831808 812.01045547H292.628256c-58.3901248 0-105.87917333-47.49778027-105.87917227-105.88790507V317.8763584c0-58.3901248 47.48904853-105.88790507 105.87917227-105.88790507h388.2549248c58.3901248 0 105.88790507 47.49778027 105.88790507 105.88790507v388.246192c0 58.3901248-47.49778027 105.88790507-105.88790507 105.88790507zM292.628256 282.58075413c-19.45755307 0-35.27813973 15.8293184-35.27813973 35.29560427v388.246192c0 19.45755307 15.82058667 35.29560427 35.27813973 35.29560427h388.2549248c19.45755307 0 35.29560427-15.8380512 35.29560427-35.29560427V317.8763584c0-19.46628587-15.8380512-35.29560427-35.29560427-35.29560427H292.628256z" fill="#0aacfb" p-id="17169" data-spm-anchor-id="a313x.7781069.0.i29" class="selected"></path><path d="M310.27605867 264.9416832c-3.8607296 0-7.77276053-0.63745173-11.6334912-1.98221227-18.4064128-6.41926827-28.10899307-26.54046933-21.6984576-44.94688213l37.86396693-108.5250336c13.0459264-43.64578347 53.80571307-73.97821653 100.94110613-73.97821653h142.028352c47.1190208 0 87.87771627 30.32370027 101.42356054 75.46050986l37.364048 107.04274027c6.41162773 18.4064128-3.30841707 38.53634667-21.71483094 44.95561493-18.4064128 6.37669867-38.51888213-3.30077653-44.94688213-21.70609813l-37.8465024-108.5239424c-4.99810027-16.52789547-18.57887467-26.63543253-34.27939307-26.63543253H415.7502752c-15.45929173 0-29.3675232 10.3411232-33.79693867 25.13676693l-38.34533013 110.022608c-5.08433067 14.56205653-18.73387093 23.67957867-33.33194773 23.6795776zM557.77862613 988.48956907H415.7502752c-47.13539413 0-87.8951808-30.33243307-101.4235616-75.4692416l-37.38151147-107.02418347c-6.41162773-18.4064128 3.29204373-38.53634667 21.6984576-44.96434773 18.44025067-6.428 38.53634667 3.30950827 44.96434667 21.6984576l37.86396693 108.5239424c4.98063573 16.54536 18.56141013 26.64416427 34.27939307 26.64416426h142.02835093c15.7005184 0 29.2812928-10.1162688 33.79693867-25.161872l38.3289568-109.98986133c6.428-18.42387733 26.55793387-28.1264576 44.9468832-21.71483093 18.4064128 6.428 28.1264576 26.54046933 21.71482987 44.9468832l-37.84650134 108.52394133c-13.06448213 43.6545152-53.8242688 73.98694827-100.9421984 73.98694827zM793.13032 483.3179552c-24.36942293 0-44.11950613-19.75008213-44.11950613-44.11950613v-52.93467414c0-24.36942293 19.75008213-44.11950613 44.11950613-44.11950506s44.11950613 19.75008213 44.11950507 44.11950506v52.93467414c0 24.36833173-19.75008213 44.11950613-44.11950507 44.11950613z" fill="#0aacfb" p-id="17170" data-spm-anchor-id="a313x.7781069.0.i30" class="selected"></path><path d="M486.75626453 662.00304427c-82.70715413 0-150.0074112-67.300256-150.0074112-150.00741014s67.300256-149.9986784 150.0074112-149.9986784 150.0074112 67.29152427 150.00741014 149.9986784-67.300256 150.0074112-150.00741014 150.00741014z m0-211.7583456c-34.05453867 0-61.76730773 27.69530453-61.7673088 61.75093546s27.71276907 61.76730773 61.7673088 61.76730774 61.76730773-27.71276907 61.76730774-61.76730774-27.71276907-61.75093547-61.76730774-61.75093546z" fill="#12cca8" p-id="17171"></path></svg>