<svg t="1594186065014" class="icon" viewBox="0 0 1024 1024" version="1.1" xmlns="http://www.w3.org/2000/svg" p-id="42448" width="200" height="200"><path d="M858.4424 147.392a505.28 505.28 0 0 0-25.376-70.144 262.56 262.56 0 0 1 73.824 70.144H858.4424z m-147.584 0V37.152a262.656 262.656 0 0 1 67.264 13.664c17.6 30.592 31.616 63.04 41.856 96.576h-109.12z m-138.976 0a459.296 459.296 0 0 1 43.36-99.296 264.48 264.48 0 0 1 58.656-10.944v110.24h-102.016z m-93.76 0a261.696 261.696 0 0 1 82.752-75.584 494.944 494.944 0 0 0-27.776 75.584h-54.976zM771.4024 10.752A299.552 299.552 0 0 0 403.3064 220.48l35.648 9.728c4.32-15.84 10.176-31.168 17.312-45.856h68.096c-2.464 12.544-4.448 25.184-5.952 37.92l36.864 4.64 0.064 0.064c1.664-14.336 4.032-28.544 7.04-42.624h111.52v40.224h36.96V184.352h118.752c4.288 19.904 7.36 40.096 9.024 60.512l36.704-3.328a496.64 496.64 0 0 0-8-57.184h61.44a262.4 262.4 0 0 1 25.76 96.64h-45.44v36.864h45.44a261.952 261.952 0 0 1-26.016 96.672h-45.12v36.96h23.136a259.264 259.264 0 0 1-15.808 20.096l27.84 24.256v0.064a300 300 0 0 0 62.592-117.184C1024.8424 219.2 930.9224 54.4 771.4024 10.72z" fill="#ffffff" p-id="42449"></path><path d="M63.8824 288h768v448H63.8824z" fill="#ffffff" p-id="42450"></path><path d="M363.1464 937.024h182.624v-69.92h-182.624v69.92z m-275.936-144.48v-32.096h734.272v32.096c0 10.56-8.64 19.168-19.264 19.168H106.5384a19.328 19.328 0 0 1-19.328-19.2zM811.2104 307.84a10.56 10.56 0 0 1 10.464 10.56v384.096H87.1464V317.856c0-5.792 4.8-10.496 10.528-10.464h183.328v0.48h530.208z m65.792 11.04a66.496 66.496 0 0 0-65.824-66.304H327.9144v-0.48H97.6744A66.496 66.496 0 0 0 31.8824 318.4v474.112a74.752 74.752 0 0 0 74.688 74.56h201.184v69.888h-28.608v55.36h353.76v-55.36h-31.744v-69.888h201.248a74.816 74.816 0 0 0 74.624-74.624v-87.424h-0.032V318.912z" fill="#ffffff" p-id="42451"></path><path d="M383.6264 543.744h32.512v32.48A32 32 0 0 0 447.8824 608a32 32 0 0 0 31.744-31.776v-32.48h32.512A32 32 0 0 0 543.8824 512a32 32 0 0 0-31.744-31.744h-32.512v-32.512C478.9224 430.08 464.8744 416 447.8824 416a32 32 0 0 0-31.744 31.744v32.512h-32.512A32 32 0 0 0 351.8824 512a32 32 0 0 0 31.744 31.744" fill="#ffffff" p-id="42452"></path></svg>