<svg t="1594792739031" class="icon" viewBox="0 0 1511 1024" version="1.1" xmlns="http://www.w3.org/2000/svg" p-id="20042" width="200" height="200"><path d="M19.504762 0h1472.609524c10.727619 0 19.504762 8.777143 19.504762 19.504762v984.990476c0 10.727619-8.777143 19.504762-19.504762 19.504762H19.504762c-10.727619 0-19.504762-8.777143-19.504762-19.504762V19.504762c0-10.727619 8.777143-19.504762 19.504762-19.504762z" fill="#F4F8FE" p-id="20043"></path><path d="M1492.114286 1004.495238H19.504762c-10.727619 0-19.504762-17.554286-19.504762-39.009524v-195.047619h1511.619048v195.047619c0 21.455238-8.777143 39.009524-19.504762 39.009524z" fill="#47BAFE" p-id="20044"></path><path d="M1492.114286 0H19.504762C8.777143 0 0 17.554286 0 39.009524v945.980952c0 21.455238 8.777143 39.009524 19.504762 39.009524h1472.609524c10.727619 0 19.504762-17.554286 19.504762-39.009524V39.009524c0-21.455238-8.777143-39.009524-19.504762-39.009524z m0 965.485714c0 21.455238-8.777143 39.009524-19.504762 39.009524H39.009524c-10.727619 0-19.504762-17.554286-19.504762-39.009524V58.514286c0-21.455238 8.777143-39.009524 19.504762-39.009524h1433.6c10.727619 0 19.504762 17.554286 19.504762 39.009524v906.971428z" fill="#E3EEFF" p-id="20045"></path><path d="M627.078095 828.464762h107.76381v9.264762h-98.499048v97.03619h102.887619v9.752381h-112.152381v-116.053333z m38.521905 36.083809c-3.900952 5.851429-7.801905 10.727619-12.678095 15.116191l-7.314286-6.826667c9.264762-8.289524 15.60381-18.041905 19.992381-30.232381l8.777143 2.438096c-1.462857 4.388571-2.925714 7.801905-4.388572 10.727619h54.613334v8.777142h-29.744762v7.801905c0 4.388571-0.487619 8.289524-0.975238 11.702857h38.521905v9.264762H692.419048c-1.950476 6.339048-4.388571 11.702857-8.289524 17.066667-6.826667 8.777143-18.041905 15.60381-33.645714 20.48l-5.36381-8.289524c15.11619-4.87619 25.84381-10.727619 32.182857-18.529524 2.438095-3.413333 4.388571-7.314286 5.36381-10.727619h-37.059048v-9.264762h39.009524c0.487619-3.900952 0.975238-7.801905 0.975238-11.702857v-7.801905h-19.992381z m30.72 35.108572c13.165714 5.851429 25.35619 13.165714 37.059048 22.430476l-5.36381 8.289524c-11.702857-9.752381-23.405714-17.066667-36.083809-23.405714l4.388571-7.314286zM758.735238 829.44h39.497143v7.801905c-3.413333 12.190476-7.801905 24.868571-13.165714 38.521905 7.801905 12.190476 11.702857 22.918095 12.190476 32.670476 0 6.339048-1.462857 10.727619-3.900953 13.165714-3.413333 3.413333-10.24 4.87619-19.017142 4.87619l-3.413334-9.75238c2.925714 0.487619 4.87619 0.487619 5.36381 0.487619 4.388571-0.487619 7.314286-0.975238 9.264762-2.438096 1.462857-1.462857 2.438095-3.413333 2.438095-6.826666 0-9.264762-4.388571-19.504762-12.678095-31.207619 5.36381-14.140952 9.752381-26.819048 13.165714-38.521905h-19.992381v110.689524h-9.752381v-119.466667z m44.373333 57.051429h73.630477v9.264761h-22.430477v37.059048c0 3.413333 1.462857 5.36381 3.900953 5.36381h5.851428c1.462857 0 2.925714-0.487619 3.900953-1.462858 1.462857-0.975238 2.438095-7.314286 2.925714-18.041904l8.777143 2.925714c-0.975238 12.190476-2.438095 19.504762-4.388572 21.942857-1.950476 1.950476-4.87619 2.925714-9.264761 3.413333h-10.727619c-3.413333 0-5.851429-0.975238-7.801905-3.413333-1.950476-2.438095-2.925714-5.36381-2.925715-8.777143v-39.497143h-12.678095c-0.975238 14.628571-3.413333 25.35619-7.314285 32.182858-4.87619 8.289524-12.190476 15.11619-22.918096 20.967619l-6.339047-8.289524c9.264762-4.87619 16.091429-10.727619 19.992381-17.066667 3.413333-5.851429 5.36381-15.11619 6.339047-27.794286h-19.017143l0.487619-8.777142z m72.167619-50.224762v27.794285h-9.264761v-18.529523h-53.150477v18.529523h-9.752381v-27.794285h31.207619c-1.462857-4.388571-3.413333-8.289524-4.87619-11.215238l10.24-1.462858c1.950476 3.900952 3.413333 8.289524 4.87619 13.165715l30.72-0.487619z m-61.927619 25.843809h52.175239v8.777143h-52.175239v-8.777143z" fill="#FFFFFF" p-id="20046"></path><path d="M759.710476 540.769524H433.980952c-16.091429 0-29.257143-13.165714-29.257142-29.257143v-6.339048c0-16.091429 13.165714-29.257143 29.257142-29.257143h325.729524c16.091429 0 29.257143 13.165714 29.257143 29.257143v6.339048c0 16.091429-13.165714 29.257143-29.257143 29.257143z" fill="#E3EEFF" p-id="20047"></path><path d="M757.76 655.847619h-4.87619c-31.695238 0-57.539048-25.84381-57.539048-57.539048s25.84381-57.539048 57.539048-57.539047h4.87619V475.428571H458.849524v65.340953h109.226666c31.695238 0 57.539048 25.84381 57.539048 57.539047 0 31.695238-25.84381 57.539048-57.539048 57.539048H458.361905v65.340952h298.910476l0.487619-65.340952z" fill="#E3EEFF" p-id="20048"></path><path d="M775.314286 377.904762c0-11.702857-9.264762-21.455238-20.967619-21.455238h-213.577143c-11.702857 0-21.942857 9.752381-21.942857 21.942857 0 11.702857 9.752381 21.942857 21.942857 21.942857h86.79619c21.455238 0 38.521905 17.066667 38.521905 38.521905s-17.066667 38.521905-38.521905 38.521905h-72.655238v43.398095h199.436191v-43.398095h-2.925715c-21.455238 0-38.521905-17.066667-38.521904-38.521905s17.066667-38.521905 38.521904-38.521905h3.413334c11.215238-1.462857 20.48-11.215238 20.48-22.430476z m119.954285 277.942857h-458.361904c-18.041905 0-32.182857 14.628571-32.182857 32.182857 0 18.041905 14.628571 32.182857 32.182857 32.182857h458.361904v-64.365714z m11.702858 0h27.306666v65.340952H906.971429v-65.340952z m60.952381 0h17.554285v65.340952h-17.554285v-65.340952z m67.779047 0H994.742857v65.340952h40.96c18.041905 0 32.182857-14.628571 32.182857-32.182857 0.487619-18.529524-14.140952-33.158095-32.182857-33.158095z" fill="#E3EEFF" p-id="20049"></path><path d="M1068.860952 271.11619h-29.744762c-1.950476 0-3.413333-1.950476-3.413333-3.413333 0-1.950476 1.950476-3.413333 3.413333-3.413333h29.744762c1.950476 0 3.413333 1.950476 3.413334 3.413333 0 1.950476-1.462857 3.413333-3.413334 3.413333z" fill="#2B77EF" p-id="20050"></path><path d="M1053.744762 286.232381c-1.950476 0-3.413333-1.950476-3.413333-3.413333v-29.744762c0-1.950476 1.950476-3.413333 3.413333-3.413334 1.950476 0 3.413333 1.950476 3.413333 3.413334V282.819048c0.487619 1.462857-0.975238 3.413333-3.413333 3.413333z" fill="#2B77EF" p-id="20051"></path><path d="M488.594286 542.232381c-14.628571 0-27.306667-11.215238-28.281905-26.331429-0.975238-7.314286 1.950476-14.628571 6.339048-20.967619 4.87619-5.851429 11.702857-9.752381 19.017142-10.24s14.628571 1.950476 20.967619 6.339048c5.851429 4.87619 9.752381 11.702857 10.24 19.017143 1.462857 15.60381-10.24 29.257143-25.843809 31.207619-0.975238 0.975238-1.462857 0.975238-2.438095 0.975238z m0-49.737143h-1.950476c-5.851429 0.487619-10.727619 2.925714-14.628572 7.314286-3.413333 4.388571-5.36381 10.24-4.87619 15.603809 0.975238 11.702857 11.215238 20.48 23.405714 19.504762 11.702857-0.975238 20.48-11.215238 19.504762-23.405714-0.487619-5.851429-2.925714-10.727619-7.314286-14.628571-4.388571-2.925714-9.264762-4.388571-14.140952-4.388572z m245.76-347.184762c-5.851429 0-11.215238-1.950476-15.60381-5.851428-4.87619-4.388571-7.801905-10.24-8.777143-16.579048-1.462857-13.653333 8.777143-25.35619 22.430477-26.331429 13.653333-1.462857 25.35619 8.777143 26.331428 22.430477 1.462857 13.653333-8.777143 25.35619-22.430476 26.331428h-1.950476z m0-41.447619h-1.462857c-9.752381 0.975238-16.579048 9.264762-15.60381 19.017143 0.487619 4.87619 2.438095 8.777143 6.339048 11.702857 3.413333 2.925714 7.801905 4.388571 12.678095 3.900953 9.752381-0.975238 16.579048-9.264762 15.603809-19.017143-0.487619-4.87619-2.438095-8.777143-6.339047-11.702857-2.925714-2.925714-6.826667-3.900952-11.215238-3.900953zM573.927619 188.220952c-1.950476 0-3.413333-1.950476-3.413333-3.413333v-21.942857l-15.116191 15.11619c-1.462857 1.462857-3.413333 1.462857-4.87619 0s-1.462857-3.413333 0-4.87619l15.11619-15.116191h-21.942857c-1.950476 0-3.413333-1.950476-3.413333-3.413333 0-1.950476 1.950476-3.413333 3.413333-3.413333h21.942857l-15.11619-15.116191c-1.462857-1.462857-1.462857-3.413333 0-4.87619s3.413333-1.462857 4.87619 0L570.514286 146.285714v-21.942857c0-1.950476 1.950476-3.413333 3.413333-3.413333 1.950476 0 3.413333 1.950476 3.413333 3.413333V146.285714l15.116191-15.11619c1.462857-1.462857 3.413333-1.462857 4.87619 0s1.462857 3.413333 0 4.87619l-15.11619 15.116191h21.942857c1.950476 0 3.413333 1.950476 3.413333 3.413333 0 1.950476-1.950476 3.413333-3.413333 3.413333h-21.942857l15.11619 15.116191c1.462857 1.462857 1.462857 3.413333 0 4.87619s-3.413333 1.462857-4.87619 0l-15.116191-15.11619v21.942857c0 1.950476-1.462857 3.413333-3.413333 3.413333zM1055.695238 418.864762c-1.950476 0-3.413333-1.950476-3.413333-3.413333v-21.942858l-15.116191 15.116191c-1.462857 1.462857-3.413333 1.462857-4.87619 0s-1.462857-3.413333 0-4.876191l15.11619-15.11619h-21.942857c-1.950476 0-3.413333-1.950476-3.413333-3.413333 0-1.950476 1.950476-3.413333 3.413333-3.413334h21.942857l-15.11619-15.11619c-1.462857-1.462857-1.462857-3.413333 0-4.876191s3.413333-1.462857 4.87619 0l15.116191 15.116191v-21.942857c0-1.950476 1.950476-3.413333 3.413333-3.413334 1.950476 0 3.413333 1.950476 3.413333 3.413334v21.942857l15.116191-15.116191c1.462857-1.462857 3.413333-1.462857 4.87619 0s1.462857 3.413333 0 4.876191l-15.11619 15.11619h21.942857c1.950476 0 3.413333 1.950476 3.413333 3.413334 0 1.950476-1.950476 3.413333-3.413333 3.413333h-21.942857l15.11619 15.11619c1.462857 1.462857 1.462857 3.413333 0 4.876191s-3.413333 1.462857-4.87619 0l-15.116191-15.116191v21.942858c0 2.438095-0.975238 3.413333-3.413333 3.413333z" fill="#82A0F6" p-id="20052"></path><path d="M931.84 255.024762c0 20.48-14.140952 37.059048-31.695238 37.059048 17.554286 0 31.695238 16.579048 31.695238 37.059047 0-20.48 14.140952-37.059048 31.695238-37.059047-17.554286 0-31.695238-16.579048-31.695238-37.059048z m-45.83619-186.270476c0 15.11619-10.727619 27.306667-23.405715 27.306666 12.678095 0 23.405714 12.190476 23.405715 27.306667 0-15.11619 10.727619-27.306667 23.405714-27.306667-12.678095 0.487619-23.405714-12.190476-23.405714-27.306666z" fill="#76A6EF" p-id="20053"></path><path d="M525.165714 625.615238c-8.777143 0-16.091429-6.826667-16.091428-16.091428 0-8.777143 6.826667-16.091429 16.091428-16.091429 8.777143 0 16.091429 6.826667 16.091429 16.091429 0.487619 9.264762-6.826667 16.091429-16.091429 16.091428z m0-24.868571c-4.87619 0-8.777143 3.900952-8.777143 8.777143s3.900952 8.777143 8.777143 8.777142 8.777143-3.900952 8.777143-8.777142-3.413333-8.777143-8.777143-8.777143z" fill="#82A0F6" p-id="20054"></path><path d="M478.841905 256c-0.487619 19.504762 12.190476 36.08381 29.257143 36.571429-16.579048-0.487619-30.72 15.11619-31.695238 35.108571 0.487619-19.504762-12.190476-36.08381-29.257143-36.571429 17.066667 0 31.207619-15.11619 31.695238-35.108571z" fill="#76A6EF" p-id="20055"></path><path d="M1001.569524 657.310476l-164.815238 1.950476V391.558095c0-20.48 14.628571-37.059048 33.645714-37.546666l96.548571-0.975239c19.017143 0 34.620952 16.579048 34.620953 37.546667v266.727619z" fill="#C7DDFF" p-id="20056"></path><path d="M966.948571 353.03619l-21.455238 0.48762c18.041905 1.462857 31.695238 17.066667 31.695238 37.059047v266.727619l-140.921904 1.462857v0.487619l164.815238-1.950476V390.095238c0.487619-20.48-15.11619-37.546667-34.133334-37.059048z" fill="#76A6EF" p-id="20057"></path><path d="M831.390476 664.624762v-273.066667c0-23.405714 17.554286-42.910476 39.497143-42.910476l96.548571-0.975238c10.24 0 19.504762 3.900952 27.306667 11.215238 8.289524 8.289524 13.165714 19.504762 13.165714 31.695238V663.161905l-176.518095 1.462857z m136.045714-306.224762l-96.548571 0.975238c-15.60381 0-27.794286 14.628571-27.794286 31.695238V653.409524l153.6-1.950476V390.095238c0-9.264762-3.413333-18.041905-9.752381-23.405714-5.851429-5.36381-12.678095-8.289524-19.504762-8.289524z" fill="#2B77EF" p-id="20058"></path><path d="M862.110476 658.773333l-279.405714-1.950476V217.478095c0-12.678095 14.140952-27.306667 31.695238-27.306666l215.04-1.950477c18.041905 0 32.182857 14.628571 32.182857 31.695238l0.487619 438.857143z" fill="#C7DDFF" p-id="20059"></path><path d="M623.177143 656.822857V217.478095c0-12.678095 14.140952-27.306667 31.695238-27.306666l178.468571-1.950477c-1.462857 0-2.438095-0.487619-3.900952-0.487619l-215.04 1.950477c-17.554286 0-31.695238 14.628571-31.695238 27.306666v439.344762l279.405714 1.950476-238.933333-1.462857z" fill="#FFFFFF" p-id="20060"></path><path d="M803.59619 188.220952l-34.133333 0.487619c29.257143 2.925714 52.175238 27.306667 52.175238 57.539048v412.525714l-238.933333 1.950477v0.487619l279.405714-2.438096V245.76c0-31.695238-26.331429-58.026667-58.514286-57.539048z" fill="#76A6EF" p-id="20061"></path><path d="M587.580952 667.062857c-2.438095 0-5.36381-0.975238-7.314285-2.925714-1.950476-1.950476-2.925714-4.87619-2.925715-7.314286v-129.706667c0-2.925714 2.438095-5.851429 5.851429-5.851428 2.925714 0 5.851429 2.438095 5.851429 5.851428v128.731429l268.190476-2.438095V232.594286c0-10.727619-3.900952-19.992381-11.215238-27.306667s-17.554286-11.215238-27.794286-11.215238l-190.171429 1.950476c-21.455238 0-38.521905 17.554286-38.521904 39.009524v15.11619c0 2.925714-2.438095 5.851429-5.851429 5.851429-2.925714 0-5.851429-2.438095-5.851429-5.851429v-15.11619c0-27.306667 22.430476-49.737143 49.737143-50.224762l190.171429-1.950476c13.653333 0 26.331429 5.36381 36.083809 14.628571 9.752381 9.752381 14.628571 22.430476 14.628572 36.08381v421.302857c0 5.851429-4.87619 10.727619-10.727619 10.727619l-270.140953 1.462857z" fill="#2B77EF" p-id="20062"></path><path d="M582.704762 505.660952c-2.925714 0-5.851429-2.438095-5.851429-5.851428v-19.017143c0-2.925714 2.438095-5.851429 5.851429-5.851429 2.925714 0 5.851429 2.438095 5.851428 5.851429v19.017143c0 2.925714-2.925714 5.851429-5.851428 5.851428z m0-45.83619c-2.925714 0-5.851429-2.438095-5.851429-5.851429V283.794286c0-2.925714 2.438095-5.851429 5.851429-5.851429 2.925714 0 5.851429 2.438095 5.851428 5.851429v170.179047c0 3.413333-2.925714 5.851429-5.851428 5.851429z" fill="#2B77EF" p-id="20063"></path><path d="M774.826667 288.182857h-93.135238c-5.851429 0-10.727619-4.87619-10.727619-10.727619s4.87619-10.727619 10.727619-10.727619h93.135238c5.851429 0 10.727619 4.87619 10.727619 10.727619 0 5.851429-4.87619 10.727619-10.727619 10.727619z" fill="#F68282" p-id="20064"></path><path d="M728.015238 334.506667c-5.851429 0-10.727619-4.87619-10.727619-10.727619v-92.647619c0-5.851429 4.87619-10.727619 10.727619-10.727619s10.727619 4.87619 10.727619 10.727619v93.135238c0.487619 5.851429-4.388571 10.24-10.727619 10.24z" fill="#F68282" p-id="20065"></path><path d="M790.430476 445.68381h-124.342857c-2.925714 0-5.851429-2.438095-5.851429-5.851429 0-2.925714 2.438095-5.851429 5.851429-5.851429h124.342857c2.925714 0 5.851429 2.438095 5.851429 5.851429-0.487619 3.413333-2.925714 5.851429-5.851429 5.851429z m0 47.299047h-124.342857c-2.925714 0-5.851429-2.438095-5.851429-5.851428 0-2.925714 2.438095-5.851429 5.851429-5.851429h124.342857c2.925714 0 5.851429 2.438095 5.851429 5.851429-0.487619 2.925714-2.925714 5.851429-5.851429 5.851428z m-1.462857 171.641905h-128.731429v-115.078095h128.24381l0.487619 115.078095z m-117.028571-11.215238h105.325714v-92.16h-105.325714V653.409524z m290.620952 11.215238h-63.390476v-115.078095h63.390476v115.078095z m-52.175238-11.215238h40.472381v-92.16h-40.472381V653.409524z m46.323809-207.725714h-52.175238c-2.925714 0-5.851429-2.438095-5.851428-5.851429 0-2.925714 2.438095-5.851429 5.851428-5.851429h52.175238c2.925714 0 5.851429 2.438095 5.851429 5.851429s-2.438095 5.851429-5.851429 5.851429z m0 47.299047h-52.175238c-2.925714 0-5.851429-2.438095-5.851428-5.851428 0-2.925714 2.438095-5.851429 5.851428-5.851429h52.175238c2.925714 0 5.851429 2.438095 5.851429 5.851429 0 2.925714-2.438095 5.851429-5.851429 5.851428z" fill="#2B77EF" p-id="20066"></path><path d="M1093.241905 524.190476c-12.190476-24.380952-43.885714-35.59619-69.241905-28.769524-7.801905 1.950476-48.761905 17.554286-48.761905 28.281905 0-10.727619-40.472381-26.819048-48.761905-28.281905-25.35619-6.339048-57.051429 4.87619-69.241904 28.769524-7.314286 14.628571-6.339048 31.695238-1.462857 47.786667 9.264762 27.306667 28.281905 50.712381 46.811428 72.167619 12.190476 14.140952 24.868571 27.306667 38.034286 39.984762 4.388571 4.388571 33.645714 25.35619 33.645714 30.72 0-5.36381 29.257143-26.331429 33.645714-30.72 13.165714-12.678095 26.331429-26.331429 38.034286-39.984762 18.529524-21.455238 37.546667-44.860952 46.811429-72.167619 7.314286-15.60381 7.801905-33.158095 0.487619-47.786667z" fill="#F68282" p-id="20067"></path></svg>